HIERARCHY
ROOT character_B_root
{
	OFFSET 0.000000 0.000000 0.000000
	CHANNELS 6 Xposition Yposition Zposition Xrotation Yrotation Zrotation
	JOINT character_B_pelvis
	{
		OFFSET 0.000000 0.000000 0.000000
		CHANNELS 3 Xrotation Yrotation Zrotation
		JOINT character_B_spine
		{
			OFFSET -0.005949 0.551378 0.000000
			CHANNELS 3 Xrotation Yrotation Zrotation
			JOINT character_B_head
			{
				OFFSET -0.011221 0.241134 0.000000
				CHANNELS 3 Xrotation Yrotation Zrotation
				JOINT character_B_nose
				{
					OFFSET -0.004159 -0.142665 -0.000261
					CHANNELS 3 Xrotation Yrotation Zrotation
					End Site
					{
						OFFSET 0.000000 0.050000 0.000000
					}
				}
			}
			JOINT character_B_left_shoulder
			{
				OFFSET 0.093188 -0.066956 0.092540
				CHANNELS 3 Xrotation Yrotation Zrotation
				JOINT character_B_left_elbow
				{
					OFFSET 0.026481 -0.252143 -0.089385
					CHANNELS 3 Xrotation Yrotation Zrotation
					JOINT character_B_left_wrist
					{
						OFFSET -0.001396 -0.164778 -0.154831
						CHANNELS 3 Xrotation Yrotation Zrotation
						End Site
						{
							OFFSET 0.000000 0.050000 0.000000
						}
					}
				}
			}
			JOINT character_B_right_shoulder
			{
				OFFSET -0.052646 -0.054758 0.152841
				CHANNELS 3 Xrotation Yrotation Zrotation
				JOINT character_B_right_elbow
				{
					OFFSET -0.025750 -0.252567 -0.055740
					CHANNELS 3 Xrotation Yrotation Zrotation
					JOINT character_B_right_wrist
					{
						OFFSET 0.022565 -0.178373 -0.161123
						CHANNELS 3 Xrotation Yrotation Zrotation
						End Site
						{
							OFFSET 0.000000 0.050000 0.000000
						}
					}
				}
			}
		}
		JOINT character_B_left_hip
		{
			OFFSET 0.053047 -0.014449 0.105832
			CHANNELS 3 Xrotation Yrotation Zrotation
			JOINT character_B_left_knee
			{
				OFFSET 0.010852 -0.388560 0.128200
				CHANNELS 3 Xrotation Yrotation Zrotation
				JOINT character_B_left_ankle
				{
					OFFSET -0.005897 -0.374408 0.161260
					CHANNELS 3 Xrotation Yrotation Zrotation
					JOINT character_B_left_big_toe
					{
						OFFSET 0.012109 -0.098215 0.034452
						CHANNELS 3 Xrotation Yrotation Zrotation
						End Site
						{
							OFFSET 0.000000 0.050000 0.000000
						}
					}
					JOINT character_B_left_small_toe
					{
						OFFSET 0.041617 -0.095586 0.019459
						CHANNELS 3 Xrotation Yrotation Zrotation
						End Site
						{
							OFFSET 0.000000 0.050000 0.000000
						}
					}
					JOINT character_B_left_heel
					{
						OFFSET -0.014884 -0.052778 0.025198
						CHANNELS 3 Xrotation Yrotation Zrotation
						End Site
						{
							OFFSET 0.000000 0.050000 0.000000
						}
					}
				}
			}
		}
		JOINT character_B_right_hip
		{
			OFFSET -0.043381 -0.011457 0.270438
			CHANNELS 3 Xrotation Yrotation Zrotation
			JOINT character_B_right_knee
			{
				OFFSET 0.014721 -0.382947 0.164918
				CHANNELS 3 Xrotation Yrotation Zrotation
				JOINT character_B_right_ankle
				{
					OFFSET 0.029970 -0.363014 0.179744
					CHANNELS 3 Xrotation Yrotation Zrotation
					JOINT character_B_right_big_toe
					{
						OFFSET 0.007171 -0.100675 0.041990
						CHANNELS 3 Xrotation Yrotation Zrotation
						End Site
						{
							OFFSET 0.000000 0.050000 0.000000
						}
					}
					JOINT character_B_right_small_toe
					{
						OFFSET -0.022736 -0.093093 0.035638
						CHANNELS 3 Xrotation Yrotation Zrotation
						End Site
						{
							OFFSET 0.000000 0.050000 0.000000
						}
					}
					JOINT character_B_right_heel
					{
						OFFSET 0.012696 -0.052984 0.028899
						CHANNELS 3 Xrotation Yrotation Zrotation
						End Site
						{
							OFFSET 0.000000 0.050000 0.000000
						}
					}
				}
			}
		}
	}
}
MOTION
Frames: 10
Frame Time: 0.03333333
-1.792779 -0.155699 -0.628960 0.000000 0.000000 0.000000 1.630528 -7.774888 0.420032 -20.907319 4.573781 -3.363689 18.941001 4.445423 60.592554 0.000000 0.000000 0.000000 5.233496 3.156455 2.821673 16.196884 -1.808854 5.491187 0.000000 0.000000 -0.000000 -19.884740 -1.254893 16.729671 28.524459 -3.815991 -10.850127 -0.000000 0.000000 0.000000 -26.039385 7.411267 11.161316 45.783021 -8.149139 -8.048402 -2.698582 -11.317954 26.109362 0.000000 0.000000 -0.000000 0.000000 0.000000 -0.000000 0.000000 0.000000 -0.000000 -28.779546 7.311366 10.541720 45.712543 -7.815426 -10.611127 105.568607 -22.340769 139.611178 -0.000000 0.000000 -0.000000 -0.000000 0.000000 -0.000000 -0.000000 0.000000 -0.000000
-1.794682 -0.170822 -0.628960 0.000000 0.000000 0.000000 1.149783 -8.674821 1.089552 -22.758431 4.030427 -0.933921 21.528131 5.167402 68.404548 0.000000 0.000000 -0.000000 6.775239 4.243162 0.533622 12.708336 -1.158397 4.257158 -0.000000 0.000000 -0.000000 -18.488358 0.795218 15.448850 28.762505 -3.531915 -11.872244 -0.000000 0.000000 -0.000000 -25.428762 8.582635 11.174874 46.082715 -8.370539 -8.081590 -3.093035 -11.179893 26.791198 -0.000000 0.000000 0.000000 -0.000000 0.000000 0.000000 -0.000000 0.000000 0.000000 -28.376205 8.421268 10.275314 46.083491 -7.781863 -10.550111 105.291279 -22.042803 138.672668 -0.000000 0.000000 -0.000000 -0.000000 0.000000 -0.000000 -0.000000 0.000000 -0.000000
-1.796594 -0.180595 -0.628960 0.000000 0.000000 0.000000 0.981974 -9.605006 1.526713 -24.429994 3.819191 1.163313 23.636548 5.537827 74.117133 -0.000000 0.000000 0.000000 7.954578 4.874502 -1.105561 9.777636 -0.593650 3.273101 -0.000000 0.000000 0.000000 -17.397379 2.174400 14.543329 29.056798 -3.290162 -12.840824 0.000000 0.000000 0.000000 -24.800744 9.703470 11.269756 45.909542 -8.413504 -7.987330 -3.637227 -11.211375 27.391067 0.000000 0.000000 0.000000 0.000000 0.000000 0.000000 0.000000 0.000000 0.000000 -27.825556 9.526116 10.323734 45.998504 -7.781932 -10.471166 105.583310 -20.939321 138.598061 0.000000 0.000000 0.000000 0.000000 0.000000 0.000000 0.000000 0.000000 0.000000
-1.798109 -0.202899 -0.628960 0.000000 0.000000 0.000000 0.368807 -10.898930 2.008983 -25.737464 4.496881 4.189769 25.936962 4.922794 87.199575 -0.000000 0.000000 -0.000000 8.740281 4.717779 -3.451925 14.426451 -0.109677 2.603020 0.000000 0.000000 -0.000000 -16.779123 3.009122 12.972517 35.529266 -4.081128 -13.334828 0.000000 0.000000 0.000000 -24.875844 10.967138 11.062866 46.929458 -7.597760 -6.853693 -6.784171 -9.387667 27.907892 -0.000000 0.000000 0.000000 -0.000000 0.000000 0.000000 -0.000000 0.000000 0.000000 -27.793245 10.777847 10.150118 46.671058 -7.110157 -9.721413 106.038149 -18.750642 138.432363 0.000000 0.000000 -0.000000 0.000000 0.000000 -0.000000 0.000000 0.000000 -0.000000
-1.799201 -0.220226 -0.628960 0.000000 0.000000 0.000000 -1.303175 -12.315904 1.198752 -28.032607 3.066207 7.342698 30.376268 5.890371 103.315690 -0.000000 0.000000 -0.000000 10.439193 6.455415 -5.624271 17.041552 0.121786 2.803910 0.000000 0.000000 -0.000000 -13.412767 6.354097 10.468875 36.304363 -4.163721 -11.647768 0.000000 0.000000 0.000000 -22.937874 11.995710 11.056351 46.773987 -6.019374 -5.067869 -8.079311 -7.012748 28.600758 -0.000000 0.000000 0.000000 -0.000000 0.000000 0.000000 -0.000000 0.000000 0.000000 -24.494033 11.853018 9.607889 45.538877 -5.411849 -8.108097 105.446835 -18.186270 135.481248 0.000000 0.000000 -0.000000 0.000000 0.000000 -0.000000 0.000000 0.000000 -0.000000
-1.800967 -0.214708 -0.788877 0.000000 0.000000 0.000000 -0.927424 -10.510702 0.056660 -27.013678 -0.871765 3.481678 28.703390 9.509967 85.211815 -0.000000 0.000000 0.000000 9.297340 10.902964 -5.300975 12.345498 -4.285892 9.470167 -0.000000 0.000000 -0.000000 -15.050140 9.715936 11.155689 26.987983 -6.883797 -5.427004 0.000000 0.000000 -0.000000 -19.570800 9.694191 5.540470 43.236142 2.465244 4.249830 -15.614930 -4.747907 22.901921 0.000000 0.000000 0.000000 0.000000 0.000000 0.000000 0.000000 0.000000 0.000000 -20.451648 10.667857 10.382768 35.518373 -5.170378 -7.885678 107.756220 -18.190878 133.338697 -0.000000 0.000000 -0.000000 -0.000000 0.000000 -0.000000 -0.000000 0.000000 -0.000000
-1.799180 -0.206378 -0.979583 0.000000 0.000000 0.000000 -0.172453 -9.001183 -1.002836 -24.780047 -3.371098 -1.605617 24.778215 12.612588 72.701311 0.000000 0.000000 0.000000 6.276712 13.526699 -1.938099 8.099920 -8.790511 14.271596 0.000000 0.000000 0.000000 -18.683029 10.263100 14.479695 16.152023 -10.695879 -1.894611 -0.000000 0.000000 -0.000000 -16.735792 7.564466 1.634247 29.728168 4.455883 6.580586 -10.973827 -3.435995 25.690567 0.000000 0.000000 -0.000000 0.000000 0.000000 -0.000000 0.000000 0.000000 -0.000000 -17.825173 9.534222 10.983336 25.911856 -4.213344 -7.051828 110.542712 -18.680154 132.370943 -0.000000 0.000000 0.000000 -0.000000 0.000000 0.000000 -0.000000 0.000000 0.000000
-1.795769 -0.198436 -1.151243 0.000000 0.000000 0.000000 0.570794 -7.256568 -1.273139 -22.263954 -4.411002 -7.309054 20.270736 13.846846 66.885704 -0.000000 0.000000 -0.000000 2.383113 13.377567 3.177255 6.420336 -11.846318 16.899274 0.000000 0.000000 0.000000 -22.368918 8.128197 18.342804 7.872717 -13.894548 -0.598320 0.000000 0.000000 -0.000000 -14.500516 6.072781 1.689254 19.003781 3.576311 6.435594 -3.438586 -1.106564 27.858297 -0.000000 0.000000 -0.000000 -0.000000 0.000000 -0.000000 -0.000000 0.000000 -0.000000 -16.767654 7.364179 8.213886 19.280753 -3.554395 -7.184914 114.442497 -14.858877 136.745728 0.000000 0.000000 -0.000000 0.000000 0.000000 -0.000000 0.000000 0.000000 -0.000000
-1.791661 -0.190682 -1.289074 0.000000 0.000000 0.000000 1.142211 -5.600954 -1.393193 -19.714279 -4.995162 -11.778922 16.236870 13.733070 64.310498 -0.000000 0.000000 0.000000 -1.320465 11.924122 7.553098 6.001514 -13.639591 18.330871 -0.000000 0.000000 0.000000 -25.372842 5.348574 21.181919 4.074766 -15.941206 0.132454 -0.000000 0.000000 -0.000000 -12.863153 4.837628 2.578884 11.601040 2.712957 5.518714 2.466833 -0.158811 28.852773 0.000000 0.000000 -0.000000 0.000000 0.000000 -0.000000 0.000000 0.000000 -0.000000 -15.761749 5.209768 5.349810 14.770619 -3.357624 -7.524736 115.006839 -11.866221 139.620584 0.000000 0.000000 0.000000 0.000000 0.000000 0.000000 0.000000 0.000000 0.000000
-1.789179 -0.189103 -1.393086 0.000000 0.000000 0.000000 1.626386 -4.207679 -1.412466 -18.331170 -6.079263 -14.279581 13.892657 13.673926 63.364519 0.000000 0.000000 -0.000000 -3.358563 11.124657 9.974844 5.900225 -14.690918 19.118584 0.000000 0.000000 0.000000 -27.130852 4.054267 22.501678 3.292227 -16.951782 0.858988 0.000000 0.000000 -0.000000 -11.870245 3.838311 3.452198 6.280248 2.172445 4.557549 2.136069 0.365740 29.165489 -0.000000 0.000000 0.000000 -0.000000 0.000000 0.000000 -0.000000 0.000000 0.000000 -15.521609 3.309859 2.946644 12.097958 -0.370286 -1.573114 120.857376 -18.959030 164.053577 0.000000 0.000000 0.000000 0.000000 0.000000 0.000000 0.000000 0.000000 0.000000
